<svg id="Layer_1" viewBox="0 0 512 512" xmlns="http://www.w3.org/2000/svg" transform="scale(1.2)" data-name="Layer 1"><path d="m172.015 369.722a9.436 9.436 0 1 0 6.664-2.756 9.435 9.435 0 0 0 -6.664 2.756z"/><path d="m326.656 383.049a9.42 9.42 0 1 0 0-13.328 9.362 9.362 0 0 0 .001 13.329z"/><path d="m249.336 373.188a9.435 9.435 0 1 0 6.664-2.756 9.364 9.364 0 0 0 -6.664 2.756z"/><path d="m182.9 174.944a61.587 61.587 0 0 0 -54.281 61.056h-.011c.011 0 .017.57.019.743 0 .12 0 .47-.007.589a47.986 47.986 0 0 0 47.738 47.668h159.284a47.986 47.986 0 0 0 47.724-46.754 8.437 8.437 0 0 1 -.122-1.432 41 41 0 0 0 -47.738-39.71 6 6 0 0 1 -7.171-6.031c.007-.28.006-.556.006-.837a71.552 71.552 0 0 0 -140.37-19.552 5.934 5.934 0 0 1 -5.071 4.26z"/><path d="m77 118.084v169.505c0 39.35 26.539 89.414 59.078 111.6l119.949 81.76 119.908-81.76c32.539-22.189 59.065-72.25 59.065-111.6v-169.252l-179-87.865zm263.153 66.541c1.028-.034 2.039-.015 3.027-.015a52.267 52.267 0 0 1 52.047 50.96 7.016 7.016 0 0 1 .154 1.468c0 32.94-26.8 59.962-59.739 59.962h-33.642v28h31.321a5.669 5.669 0 0 1 5.679 5.923v24.9a18.552 18.552 0 0 1 9.3 5.408 21.393 21.393 0 1 1 -30.288 0 23 23 0 0 1 8.988-5.404v-18.827h-31.261a5.85 5.85 0 0 1 -5.739-6.077v-33.923h-28v62.294a21.45 21.45 0 1 1 -12 0v-62.294h-26v33.923a6.063 6.063 0 0 1 -6 6.077h-33v18.828a33.661 33.661 0 0 1 8.994 5.172h-.155c8.353 9 8.363 22.063.01 30.417a21.339 21.339 0 1 1 -30.159-30.195 18.557 18.557 0 0 1 9.31-5.394v-24.9a5.669 5.669 0 0 1 5.679-5.928h33.321v-28h-35.642c-32.94 0-59.739-27.022-59.739-59.962 0-.081 0-.386 0-.466v-.127c0-.067 0-.133 0-.2a73.533 73.533 0 0 1 60.971-72.533 83.547 83.547 0 0 1 162.563 20.914z"/></svg>
